<svg font-family="-apple-system-body, ui-sans-serif, -apple-system, system-ui, &quot;Segoe UI&quot;, Helvetica, &quot;Apple Color Emoji&quot;, Arial, sans-serif, &quot;Segoe UI Emoji&quot;, &quot;Segoe UI Symbol&quot;" font-weight="400" data-d-component="svg" fill="currentColor" stroke-linecap="round" stroke-linejoin="round" stroke-width="1.5" style="color:rgb(255, 255, 255)" viewBox="0 0 320 260" width="100%" xmlns="http://www.w3.org/2000/svg"><rect width="320" height="260" rx="12" fill="#0D1117"/><rect x="78" y="18" width="164" height="36" rx="8" fill="#161B22" stroke="#2EA043"/><text x="160" y="31" font-size="8" fill="#2EA043" font-family="Arial, Helvetica, sans-serif" text-anchor="middle">GitHub Pages</text><text x="160" y="41" font-size="7" fill="#E6EDF3" font-family="Arial, Helvetica, sans-serif" text-anchor="middle">ECOSSISTEMA SUPER DBA</text><path d="M160 54 V68" stroke="#2EA043" stroke-dasharray="3 3"/><rect x="78" y="68" width="164" height="28" rx="6" fill="#111827" stroke="#58A6FF"/><text x="160" y="85" font-size="8" fill="#E6EDF3" font-family="Arial, Helvetica, sans-serif" text-anchor="middle">xterm.js Terminal</text><path d="M160 96 V112" stroke="#58A6FF" stroke-dasharray="3 3"/><rect x="66" y="112" width="188" height="28" rx="6" fill="#1F2937" stroke="#F59E0B"/><text x="160" y="129" font-size="8" fill="#F3F4F6" font-family="Arial, Helvetica, sans-serif" text-anchor="middle">SSH Gateway (Futuro)</text><path d="M160 140 V154" stroke="#F59E0B" stroke-dasharray="3 3"/><rect x="92" y="154" width="136" height="24" rx="6" fill="#2D1B69" stroke="#C084FC"/><text x="160" y="169" font-size="8" fill="#F5EFFF" font-family="Arial, Helvetica, sans-serif" text-anchor="middle">Private Key Vault</text><path d="M160 178 V192" stroke="#C084FC" stroke-dasharray="3 3"/><rect x="10" y="192" width="56" height="42" rx="6" fill="#111827" stroke="#6EE7B7"/><text x="38" y="205" font-size="6" fill="#6EE7B7" font-family="Arial, Helvetica, sans-serif" text-anchor="middle">Oracle</text><text x="38" y="215" font-size="5" fill="#9CA3AF" font-family="Arial, Helvetica, sans-serif" text-anchor="middle">RAC DG</text><rect x="72" y="192" width="56" height="42" rx="6" fill="#111827" stroke="#6EE7B7"/><text x="100" y="205" font-size="6" fill="#6EE7B7" font-family="Arial, Helvetica, sans-serif" text-anchor="middle">MySQL</text><text x="100" y="215" font-size="5" fill="#9CA3AF" font-family="Arial, Helvetica, sans-serif" text-anchor="middle">Cluster</text><rect x="134" y="192" width="56" height="42" rx="6" fill="#111827" stroke="#6EE7B7"/><text x="162" y="205" font-size="6" fill="#6EE7B7" font-family="Arial, Helvetica, sans-serif" text-anchor="middle">SQL</text><text x="162" y="215" font-size="5" fill="#9CA3AF" font-family="Arial, Helvetica, sans-serif" text-anchor="middle">AlwaysOn</text><rect x="196" y="192" width="56" height="42" rx="6" fill="#111827" stroke="#6EE7B7"/><text x="224" y="205" font-size="6" fill="#6EE7B7" font-family="Arial, Helvetica, sans-serif" text-anchor="middle">Postgres</text><text x="224" y="215" font-size="5" fill="#9CA3AF" font-family="Arial, Helvetica, sans-serif" text-anchor="middle">Patroni</text><rect x="258" y="192" width="52" height="42" rx="6" fill="#111827" stroke="#6EE7B7"/><text x="284" y="205" font-size="6" fill="#6EE7B7" font-family="Arial, Helvetica, sans-serif" text-anchor="middle">Mongo</text><text x="284" y="215" font-size="5" fill="#9CA3AF" font-family="Arial, Helvetica, sans-serif" text-anchor="middle">RS</text></svg>